HIERARCHY
ROOT Hips
{
    OFFSET   0.000000   0.000000   0.000000
    CHANNELS 6 Xposition Yposition Zposition Zrotation Xrotation Yrotation
    JOINT Chest
    {
        OFFSET   0.000000   8.007230   0.000000
        CHANNELS 3 Zrotation Xrotation Yrotation
        JOINT Chest2
        {
            OFFSET   0.000000  22.077100   0.000000
            CHANNELS 3 Zrotation Xrotation Yrotation
            JOINT Neck
            {
                OFFSET   0.000000  23.255100   0.000000
                CHANNELS 3 Zrotation Xrotation Yrotation
                JOINT Head
                {
                    OFFSET   0.000000  14.370100   1.956600
                    CHANNELS 3 Zrotation Xrotation Yrotation
                    End Site
                    {
                        OFFSET   0.000000  19.566000   0.000000
                    }
                }
            }
            JOINT LeftCollar
            {
                OFFSET   3.911900  19.017000  -0.467063
                CHANNELS 3 Zrotation Xrotation Yrotation
                JOINT LeftShoulder
                {
                    OFFSET  10.383700   0.000000   0.000000
                    CHANNELS 3 Zrotation Xrotation Yrotation
                    JOINT LeftElbow
                    {
                        OFFSET  26.662100   0.001193   0.000980
                        CHANNELS 3 Zrotation Xrotation Yrotation
                        JOINT LeftWrist
                        {
                            OFFSET  28.869000  -0.000059  -0.000082
                            CHANNELS 3 Zrotation Xrotation Yrotation
                            JOINT LeftFinger0
                            {
                                OFFSET   2.044650  -2.323450   3.252850
                                CHANNELS 3 Zrotation Xrotation Yrotation
                                JOINT LeftFinger01
                                {
                                    OFFSET   3.088130   0.000000   0.000000
                                    CHANNELS 3 Zrotation Xrotation Yrotation
                                    JOINT LeftFinger02
                                    {
                                        OFFSET   2.639460   0.000000   0.000000
                                        CHANNELS 3 Zrotation Xrotation Yrotation
                                        End Site
                                        {
                                            OFFSET   2.582190   0.000000   0.000000
                                        }
                                    }
                                }
                            }
                            JOINT LeftFinger1
                            {
                                OFFSET   8.364480   0.000000   3.252850
                                CHANNELS 3 Zrotation Xrotation Yrotation
                                JOINT LeftFinger11
                                {
                                    OFFSET   4.646930   0.000000   0.000000
                                    CHANNELS 3 Zrotation Xrotation Yrotation
                                    JOINT LeftFinger12
                                    {
                                        OFFSET   2.323470   0.000000   0.000000
                                        CHANNELS 3 Zrotation Xrotation Yrotation
                                        End Site
                                        {
                                            OFFSET   2.273050   0.000000   0.000000
                                        }
                                    }
                                }
                            }
                            JOINT LeftFinger2
                            {
                                OFFSET   8.364490   0.000016   1.078090
                                CHANNELS 3 Zrotation Xrotation Yrotation
                                JOINT LeftFinger21
                                {
                                    OFFSET   5.111610   0.000000   0.000000
                                    CHANNELS 3 Zrotation Xrotation Yrotation
                                    JOINT LeftFinger22
                                    {
                                        OFFSET   2.788150   0.000016   0.000000
                                        CHANNELS 3 Zrotation Xrotation Yrotation
                                        End Site
                                        {
                                            OFFSET   2.727660   0.000000   0.000000
                                        }
                                    }
                                }
                            }
                            JOINT LeftFinger3
                            {
                                OFFSET   7.899780   0.000015  -1.078090
                                CHANNELS 3 Zrotation Xrotation Yrotation
                                JOINT LeftFinger31
                                {
                                    OFFSET   4.646930   0.000000   0.000000
                                    CHANNELS 3 Zrotation Xrotation Yrotation
                                    JOINT LeftFinger32
                                    {
                                        OFFSET   2.323470   0.000000   0.000000
                                        CHANNELS 3 Zrotation Xrotation Yrotation
                                        End Site
                                        {
                                            OFFSET   2.273050   0.000000   0.000000
                                        }
                                    }
                                }
                            }
                            JOINT LeftFinger4
                            {
                                OFFSET   7.435090   0.000000  -3.252850
                                CHANNELS 3 Zrotation Xrotation Yrotation
                                JOINT LeftFinger41
                                {
                                    OFFSET   3.717550   0.000000   0.000000
                                    CHANNELS 3 Zrotation Xrotation Yrotation
                                    JOINT LeftFinger42
                                    {
                                        OFFSET   1.858770   0.000000   0.000000
                                        CHANNELS 3 Zrotation Xrotation Yrotation
                                        End Site
                                        {
                                            OFFSET   1.818440   0.000000   0.000000
                                        }
                                    }
                                }
                            }
                        }
                    }
                }
            }
            JOINT RightCollar
            {
                OFFSET  -3.911910  19.017000  -0.467062
                CHANNELS 3 Zrotation Xrotation Yrotation
                JOINT RightShoulder
                {
                    OFFSET -10.383700   0.000014   0.000000
                    CHANNELS 3 Zrotation Xrotation Yrotation
                    JOINT RightElbow
                    {
                        OFFSET -26.662100   0.001225   0.001091
                        CHANNELS 3 Zrotation Xrotation Yrotation
                        JOINT RightWrist
                        {
                            OFFSET -28.869000  -0.000020  -0.000085
                            CHANNELS 3 Zrotation Xrotation Yrotation
                            JOINT RightFinger0
                            {
                                OFFSET  -2.044650  -2.323490   3.252850
                                CHANNELS 3 Zrotation Xrotation Yrotation
                                JOINT RightFinger01
                                {
                                    OFFSET  -3.088130   0.000000   0.000000
                                    CHANNELS 3 Zrotation Xrotation Yrotation
                                    JOINT RightFinger02
                                    {
                                        OFFSET  -2.639460   0.000000   0.000000
                                        CHANNELS 3 Zrotation Xrotation Yrotation
                                        End Site
                                        {
                                            OFFSET  -2.582190   0.000000   0.000000
                                        }
                                    }
                                }
                            }
                            JOINT RightFinger1
                            {
                                OFFSET  -8.364480   0.000000   3.252850
                                CHANNELS 3 Zrotation Xrotation Yrotation
                                JOINT RightFinger11
                                {
                                    OFFSET  -4.646930   0.000000   0.000000
                                    CHANNELS 3 Zrotation Xrotation Yrotation
                                    JOINT RightFinger12
                                    {
                                        OFFSET  -2.323470   0.000000   0.000000
                                        CHANNELS 3 Zrotation Xrotation Yrotation
                                        End Site
                                        {
                                            OFFSET  -2.273050   0.000000   0.000000
                                        }
                                    }
                                }
                            }
                            JOINT RightFinger2
                            {
                                OFFSET  -8.364480   0.000000   1.078090
                                CHANNELS 3 Zrotation Xrotation Yrotation
                                JOINT RightFinger21
                                {
                                    OFFSET  -5.111620   0.000000   0.000000
                                    CHANNELS 3 Zrotation Xrotation Yrotation
                                    JOINT RightFinger22
                                    {
                                        OFFSET  -2.788160   0.000000   0.000000
                                        CHANNELS 3 Zrotation Xrotation Yrotation
                                        End Site
                                        {
                                            OFFSET  -2.727660   0.000000   0.000000
                                        }
                                    }
                                }
                            }
                            JOINT RightFinger3
                            {
                                OFFSET  -7.899780   0.000000  -1.078090
                                CHANNELS 3 Zrotation Xrotation Yrotation
                                JOINT RightFinger31
                                {
                                    OFFSET  -4.646930   0.000000   0.000000
                                    CHANNELS 3 Zrotation Xrotation Yrotation
                                    JOINT RightFinger32
                                    {
                                        OFFSET  -2.323470   0.000000   0.000000
                                        CHANNELS 3 Zrotation Xrotation Yrotation
                                        End Site
                                        {
                                            OFFSET  -2.273050   0.000000   0.000000
                                        }
                                    }
                                }
                            }
                            JOINT RightFinger4
                            {
                                OFFSET  -7.435090   0.000000  -3.252850
                                CHANNELS 3 Zrotation Xrotation Yrotation
                                JOINT RightFinger41
                                {
                                    OFFSET  -3.717550   0.000000   0.000000
                                    CHANNELS 3 Zrotation Xrotation Yrotation
                                    JOINT RightFinger42
                                    {
                                        OFFSET  -1.858760   0.000000   0.000000
                                        CHANNELS 3 Zrotation Xrotation Yrotation
                                        End Site
                                        {
                                            OFFSET  -1.818440   0.000000   0.000000
                                        }
                                    }
                                }
                            }
                        }
                    }
                }
            }
        }
    }
    JOINT LeftHip
    {
        OFFSET   9.783030   0.000000   0.000000
        CHANNELS 3 Zrotation Xrotation Yrotation
        JOINT LeftKnee
        {
            OFFSET   0.000063 -41.789100   0.000608
            CHANNELS 3 Zrotation Xrotation Yrotation
            JOINT LeftAnkle
            {
                OFFSET   0.000048 -41.133200  -0.000184
                CHANNELS 3 Zrotation Xrotation Yrotation
                JOINT LeftToe
                {
                    OFFSET   0.000000  -6.358960  14.674500
                    CHANNELS 3 Zrotation Xrotation Yrotation
                    End Site
                    {
                        OFFSET   0.000000   0.000000   3.913200
                    }
                }
            }
        }
    }
    JOINT RightHip
    {
        OFFSET  -9.783030   0.000000   0.000000
        CHANNELS 3 Zrotation Xrotation Yrotation
        JOINT RightKnee
        {
            OFFSET   0.000071 -41.789100   0.001239
            CHANNELS 3 Zrotation Xrotation Yrotation
            JOINT RightAnkle
            {
                OFFSET   0.000037 -41.133200  -0.000166
                CHANNELS 3 Zrotation Xrotation Yrotation
                JOINT RightToe
                {
                    OFFSET   0.000000  -6.358960  14.674500
                    CHANNELS 3 Zrotation Xrotation Yrotation
                    End Site
                    {
                        OFFSET   0.000000   0.000000   3.913200
                    }
                }
            }
        }
    }
}
MOTION
Frames: 5
Frame Time:   0.016667
 -0.436747  89.570300  -1.227510  -1.911720  -5.065050  -3.621210   0.630629   2.256740  -0.159457   1.269020   4.511580  -0.344216   1.983950   1.421340  -0.049182   3.263700   2.871640   2.689030   0.177843  -0.359563   4.729160 -79.459100  20.173300   2.394370  -1.354420  -5.852540 -15.659200  14.482000 -11.330800   4.393070  35.170300  29.032300 -61.291500 -34.789200   0.001123   0.000781 -12.397700   0.004103  -0.002035 -29.505800   5.040630  -8.820660 -24.463300  -0.004797  -0.008437 -17.124300  -0.002536  -0.013222 -28.688200   2.356440  -4.307460 -41.648700  -0.001933   0.005647 -27.738000  -0.003674  -0.004396 -28.571100   1.777030  -3.278920 -37.729900  -0.001864  -0.004902 -25.128100  -0.004567  -0.003788 -32.826700   0.715450  -1.113540 -49.250600  -0.005493  -0.003296 -32.800900   0.000974  -0.005140   4.421400   1.854030   6.821480  72.739100  14.603500  -5.033490  -0.112830  -2.806640   9.490270 -16.266900 -12.224200  -6.071860 -36.369600  30.499900  65.409700  32.397700   0.005936  -0.005047  11.198800   0.001862  -0.007042  32.003400   6.731860  10.623600  26.697300   0.002744  -0.002349  18.688100   0.000000  -0.003856  28.702800   2.565360   4.674780  42.896500  -0.004113  -0.003788  28.569100  -0.004983  -0.003391  28.505500   0.829529   1.527100  36.330000  -0.001098  -0.001004  24.195800  -0.002807  -0.006701  39.632300  -0.970507  -1.171210  59.463500  -0.002703  -0.001680  39.602700  -0.000191  -0.006557   1.564030   7.122460   3.725680   0.929694   0.051727   6.847100  -1.190850  -2.643540   1.781160   0.000000   0.000000  -0.000000   1.808410   6.427950   1.302630   0.001076   1.682050  -7.637560  -0.687136  -3.803760  -1.276840   0.000000   0.000000   0.000000
 -0.448400  89.570300  -1.217150  -1.911810  -5.070680  -3.621000   0.630853   2.265830  -0.153674   1.269360   4.529810  -0.332746   1.983940   1.409880  -0.049177   3.264120   2.848500   2.689430   0.176125  -0.372180   4.718150 -79.449700  20.200300   2.379220  -1.352800  -5.866570 -15.666400  14.479700 -11.330700   4.398210  35.169700  29.032400 -61.291400 -34.789200   0.001084   0.000779 -12.397600   0.004093  -0.002057 -29.505500   5.040600  -8.820900 -24.463000  -0.004769  -0.008449 -17.124100  -0.002520  -0.013242 -28.688500   2.356710  -4.299500 -41.655800  -0.001888   0.005649 -27.742700  -0.003647  -0.004364 -28.571100   1.777080  -3.279220 -37.733900  -0.001812  -0.004891 -25.130800  -0.004535  -0.003761 -32.829600   0.715441  -1.113570 -49.254800  -0.005471  -0.003275 -32.803700   0.000973  -0.005124   4.424590   1.828590   6.816910  72.739100  14.644300  -5.041690  -0.105979  -2.821960   9.490650 -16.275400 -12.219600  -6.070210 -36.372100  30.524900  65.443700  32.405000   0.005931  -0.005046  11.202400   0.001855  -0.007032  32.012600   6.738620  10.630200  26.705700   0.002739  -0.002336  18.694000   0.000000  -0.003851  28.701800   2.571270   4.685570  42.915800  -0.004117  -0.003766  28.581900  -0.004990  -0.003373  28.505200   0.835421   1.537890  36.341000  -0.001111  -0.000987  24.203100  -0.002811  -0.006696  39.639200  -0.970334  -1.171030  59.473800  -0.002701  -0.001677  39.609600  -0.000156  -0.006555   1.570750   7.126330   3.725840   0.928244   0.068328   6.846990  -1.196750  -2.659010   1.775260  -0.000000   0.000000   0.000000   1.812320   6.447660   1.302930   0.007314   1.670420  -7.634750  -0.693889  -3.807020  -1.282570  -0.000000   0.000000  -0.000000
 -0.468252  89.570300  -1.199320  -1.912150  -5.080250  -3.620820   0.630901   2.282260  -0.143021   1.269010   4.562790  -0.311587   1.983930   1.389900  -0.049164   3.264890   2.808120   2.689780   0.171029  -0.396963   4.701880 -79.431900  20.249700   2.354250  -1.351340  -5.890940 -15.677100  14.475200 -11.330700   4.403340  35.166500  29.032500 -61.291200 -34.789200   0.000999   0.000762 -12.397500   0.004068  -0.002107 -29.505300   5.040530  -8.821240 -24.462800  -0.004702  -0.008483 -17.123900  -0.002478  -0.013293 -28.688800   2.357070  -4.291540 -41.662800  -0.001784   0.005651 -27.747400  -0.003585  -0.004290 -28.571100   1.777170  -3.279630 -37.741100  -0.001693  -0.004865 -25.135600  -0.004459  -0.003700 -32.832400   0.715416  -1.113650 -49.259100  -0.005417  -0.003224 -32.806500   0.000972  -0.005083   4.430980   1.777000   6.810060  72.737000  14.731800  -5.060230  -0.093465  -2.837280   9.491020 -16.281700 -12.204200  -6.063950 -36.375100  30.567000  65.506300  32.416500   0.005917  -0.005044  11.208200   0.001845  -0.007004  32.025100   6.751160  10.644400  26.717600   0.002726  -0.002306  18.702200   0.000000  -0.003835  28.700000   2.581750   4.704710  42.944500  -0.004126  -0.003715  28.601000  -0.005007  -0.003331  28.504700   0.845649   1.556630  36.355900  -0.001142  -0.000953  24.213000  -0.002822  -0.006683  39.648700  -0.970091  -1.170770  59.487800  -0.002696  -0.001669  39.618900  -0.000085  -0.006549   1.583100   7.143650   3.726170   0.926794   0.084929   6.846890  -1.205990  -2.674490   1.766320   0.000000   0.000000   0.000000   1.820470   6.479700   1.303260   0.018190   1.653360  -7.628020  -0.706650  -3.813470  -1.291760  -0.000000   0.000000   0.000000
 -0.484938  89.570300  -1.184000  -1.914080  -5.087590  -3.620920   0.629876   2.297840  -0.131945   1.266490   4.594090  -0.289529   1.983710   1.371290  -0.049140   3.265730   2.770390   2.684720   0.161766  -0.424738   4.693430 -79.413100  20.299500   2.334190  -1.351830  -5.913250 -15.681500  14.468900 -11.330900   4.400670  35.166700  29.035900 -61.294500 -34.789400   0.000884   0.000670 -12.397400   0.004034  -0.002180 -29.506500   5.040430  -8.821390 -24.462800  -0.004598  -0.008537 -17.124000  -0.002413  -0.013370 -28.688800   2.357210  -4.292680 -41.660900  -0.001628   0.005653 -27.746800  -0.003496  -0.004183 -28.571100   1.777290  -3.279810 -37.747700  -0.001526  -0.004830 -25.140000  -0.004346  -0.003611 -32.829500   0.715376  -1.113770 -49.254700  -0.005338  -0.003146 -32.803600   0.000971  -0.005022   4.442890   1.715870   6.806130  72.734700  14.841900  -5.092520  -0.082630  -2.830280   9.490900 -16.273700 -12.177700  -6.051690 -36.373100  30.601000  65.569600  32.426100   0.005892  -0.005040  11.213000   0.001841  -0.006960  32.030200   6.763950  10.662100  26.723000   0.002707  -0.002264  18.705600   0.000000  -0.003809  28.698400   2.590720   4.721110  42.962700  -0.004140  -0.003642  28.613200  -0.005032  -0.003270  28.504300   0.854804   1.573440  36.360700  -0.001191  -0.000909  24.216200  -0.002839  -0.006662  39.651200  -0.969987  -1.170660  59.491500  -0.002689  -0.001656  39.621400   0.000007  -0.006539   1.595180   7.184350   3.726620   0.926164   0.041721   6.849720  -1.211410  -2.662210   1.761110  -0.000000   0.000000  -0.000000   1.830530   6.502360   1.302820   0.027777   1.645170  -7.618690  -0.719998  -3.820820  -1.298540  -0.000000   0.000000   0.000000
 -0.502335  89.570300  -1.167740  -1.918210  -5.096610  -3.621390   0.627985   2.315490  -0.120490   1.262400   4.629530  -0.266712   1.983500   1.353220  -0.049108   3.267150   2.733750   2.676020   0.150845  -0.456882   4.687040 -79.392200  20.353100   2.315960  -1.355450  -5.935230 -15.686900  14.464500 -11.331000   4.395990  35.170100  29.042200 -61.300600 -34.790400   0.000758   0.000547 -12.397300   0.003992  -0.002266 -29.510200   5.040320  -8.821430 -24.463300  -0.004479  -0.008605 -17.124300  -0.002339  -0.013464 -28.688800   2.357260  -4.293820 -41.658900  -0.001456   0.005655 -27.746200  -0.003393  -0.004059 -28.571000   1.777360  -3.279870 -37.756000  -0.001341  -0.004786 -25.145500  -0.004217  -0.003508 -32.826500   0.715326  -1.113920 -49.250200  -0.005244  -0.003050 -32.800600   0.000969  -0.004948   4.462210   1.644940   6.803270  72.722000  14.977800  -5.116240  -0.068989  -2.797920   9.490150 -16.254600 -12.136600  -6.035000 -36.373600  30.636600  65.638500  32.431500   0.005859  -0.005026  11.215700   0.001834  -0.006908  32.029200   6.778200  10.684200  26.724900   0.002682  -0.002218  18.706700   0.000000  -0.003775  28.696400   2.601960   4.741650  42.971600  -0.004158  -0.003561  28.619100  -0.005064  -0.003196  28.503800   0.864211   1.590770  36.361500  -0.001250  -0.000870  24.216700  -0.002859  -0.006635  39.652400  -0.969952  -1.170620  59.493400  -0.002679  -0.001641  39.622600   0.000091  -0.006527   1.609050   7.229980   3.727040   0.925539  -0.001485   6.857330  -1.217330  -2.649930   1.756930   0.000000   0.000000  -0.000000   1.842660   6.526700   1.299410   0.038174   1.638670  -7.606110  -0.735191  -3.829360  -1.304480  -0.000000   0.000000   0.000000
